<mxfile host="app.diagrams.net" modified="2023-04-03T06:00:03.971Z" agent="Mozilla/5.0 (X11; Linux x86_64; rv:109.0) Gecko/20100101 Firefox/111.0" version="21.1.2" etag="RoTX1Y2V_dkRkzpI77hP" type="github">
  <diagram name="Page-1" id="N_NnYqDD7u9cRyT0dr_D">
    <mxGraphModel>
      <root>
        <mxCell id="0" />
        <mxCell id="1" parent="0" />
      </root>
    </mxGraphModel>
  </diagram>
</mxfile>
